<svg xmlns="http://www.w3.org/2000/svg" id="Capa_1" width="505.139" height="505.139" x="0" y="0" version="1.1" viewBox="0 0 505.139 505.139" xml:space="preserve">
  <path fill="#8d8d8d" d="M496.689 307.637c0-33.064-15.503-62.478-39.615-81.452V199.36C457.074 89.432 367.636 0 257.718 0 147.781 0 58.356 89.432 58.356 199.359V219c-29.922 18.176-49.907 51.061-49.907 88.631 0 57.237 46.396 103.631 103.634 103.631V203.999c-7.368 0-14.553.786-21.492 2.238v-6.884c0-92.144 74.967-167.117 167.126-167.117 92.156 0 167.12 74.967 167.12 167.117v9.627a103.373 103.373 0 00-31.804-4.987V411.25c6.722 0 13.262-.688 19.613-1.912-10.498 22.292-34.446 55.971-85.2 65.623-3.306-3.697-8.074-6.06-13.414-6.06h-32.34c-10.004 0-18.115 8.117-18.115 18.122 0 10.004 8.111 18.115 18.115 18.115h32.353c7.757 0 14.34-4.908 16.915-11.771 71.322-13.415 97.073-68.832 104.686-91.368 35.981-16.227 61.043-52.335 61.043-94.362z"/>
</svg>
