<svg xmlns="http://www.w3.org/2000/svg" width="46" height="46"><g fill="none" fill-rule="evenodd"><path d="M0 0h46v46H0z"/><circle cx="23" cy="23" r="15" stroke="#8d8d8d" stroke-width="4"/><circle cx="23" cy="23" r="14.318" stroke="#8d8d8d" stroke-width="2"/><path fill="#fff" d="M19.609 30.385c-3.924 4.5-6.102 6.592-6.535 6.277-.433-.314.884-3.032 3.95-8.154a4.503 4.503 0 00-2.095-6.455c-5.49-2.344-8.153-3.768-7.99-4.271.164-.504 3.156-.09 8.977 1.24a4.503 4.503 0 005.49-3.988c.53-5.948 1.062-8.921 1.594-8.921s1.063 2.972 1.595 8.918a4.503 4.503 0 005.49 3.989c5.82-1.334 8.81-1.746 8.976-1.238.165.507-2.499 1.932-7.99 4.274a4.503 4.503 0 00-2.1 6.453c3.064 5.125 4.382 7.843 3.955 8.153-.427.31-2.604-1.783-6.531-6.28a4.503 4.503 0 00-6.786.003zM23 25.365a2.364 2.364 0 100-4.73 2.364 2.364 0 000 4.73zm0-6.98a.788.788 0 100 1.575.788.788 0 000-1.576zm-2.364 6.98a.788.788 0 100 1.575.788.788 0 000-1.576zm4.728 0a.788.788 0 100 1.575.788.788 0 000-1.576zm1.351-4.279a.788.788 0 100 1.576.788.788 0 000-1.576zm-7.43 0a.788.788 0 100 1.576.788.788 0 000-1.576z"/></g></svg>