<svg xmlns="http://www.w3.org/2000/svg" width="46" height="46" viewBox="0 0 46 46">
    <defs>
        <linearGradient id="a" x1="0%" x2="98.119%" y1="0%" y2="97.157%">
            <stop offset="0%" stop-color="#5D5D5D"/>
            <stop offset="100%"/>
        </linearGradient>
        <linearGradient id="b" x1="50%" x2="50%" y1="0%" y2="100%">
            <stop offset="0%" stop-color="#F5515F"/>
            <stop offset="100%" stop-color="#9F041B"/>
        </linearGradient>
    </defs>
    <g fill="none" fill-rule="evenodd">
        <path d="M0 0h46v46H0z"/>
        <path fill="url(#a)" d="M8 36h30v-9h-1v-3h1V10h3v30h-3v-1H8v1H5V10h3v14h1v3H8z"/>
        <path fill="url(#b)" fill-rule="nonzero" d="M36.84 16.189a.718.718 0 0 0-.557-.267h-2.725c-.672-1.79-1.548-3.545-2.544-4.207-3.445-2.287-12.582-2.287-16.027 0-.996.663-1.869 2.42-2.545 4.207H9.717a.725.725 0 0 0-.702.87l.404 1.974a.718.718 0 0 0 .702.577h.807c-.78.907-1.157 2.05-1.162 3.193-.005 1.412.526 2.688 1.497 3.591.011.01.022.016.032.026v2.762c0 .598.482 1.085 1.075 1.085h2.514c.594 0 1.075-.487 1.075-1.085v-1.11H30.04v1.11c0 .598.482 1.085 1.076 1.085h2.513c.593 0 1.076-.487 1.076-1.085v-2.708c1.03-.953 1.523-2.264 1.53-3.573.004-1.182-.391-2.367-1.216-3.293h.86c.341 0 .635-.24.703-.577l.404-1.973a.734.734 0 0 0-.147-.602zm-20.672-2.661c2.746-1.824 10.918-1.824 13.662 0 .534.353 1.22 1.78 1.849 3.529H14.32c.627-1.748 1.314-3.175 1.847-3.53zm-3.216 9.28c0-1.18.948-2.135 2.115-2.135 1.17 0 2.116.955 2.116 2.135 0 1.18-.946 2.135-2.116 2.135a2.126 2.126 0 0 1-2.115-2.135zm18.008 2.135a2.126 2.126 0 0 1-2.115-2.135c0-1.18.947-2.135 2.115-2.135 1.17 0 2.116.955 2.116 2.135 0 1.18-.948 2.135-2.116 2.135z"/>
    </g>
</svg>
