<svg xmlns="http://www.w3.org/2000/svg" width="46" height="46" viewBox="0 0 46 46">
    <defs>
        <linearGradient id="a" x1="0%" y1="0%" y2="100%">
            <stop offset="0%" stop-color="#FFF"/>
            <stop offset="100%" stop-color="#2D2D2D"/>
        </linearGradient>
        <linearGradient id="b" x1="99.011%" x2="0%" y1="99.011%" y2="0%">
            <stop offset="0%" stop-color="#6A6A6A"/>
            <stop offset="100%" stop-color="#CACACA"/>
        </linearGradient>
    </defs>
    <g fill="none" fill-rule="evenodd">
        <path d="M0 0h46v46H0z"/>
        <path fill="url(#a)" d="M16.017 34.342c-.58-.357-1.13-.758-1.646-1.197.653-1.227 1.537-2.773 2.654-4.637a4.503 4.503 0 0 0-2.096-6.455c-2-.854-3.624-1.586-4.874-2.195.16-.663.37-1.305.625-1.925 1.37.242 3.115.605 5.236 1.09a4.503 4.503 0 0 0 5.49-3.99c.193-2.165.386-3.936.58-5.313a13.505 13.505 0 0 1 2.028 0c.194 1.377.387 3.147.58 5.311a4.503 4.503 0 0 0 5.492 3.989c2.119-.486 3.863-.85 5.233-1.09.256.621.466 1.267.627 1.932-1.25.61-2.875 1.341-4.876 2.194a4.503 4.503 0 0 0-2.099 6.453c1.116 1.866 2 3.413 2.652 4.64-.512.436-1.059.834-1.634 1.19-.966-1-2.164-2.32-3.594-3.957a4.503 4.503 0 0 0-6.786.003c-1.429 1.638-2.626 2.957-3.592 3.957zM23 25.364a2.364 2.364 0 1 0 0-4.728 2.364 2.364 0 0 0 0 4.728zm0-6.98a.788.788 0 1 0 0 1.576.788.788 0 0 0 0-1.576zm-2.364 6.98a.788.788 0 1 0 0 1.576.788.788 0 0 0 0-1.576zm4.728 0a.788.788 0 1 0 0 1.576.788.788 0 0 0 0-1.576zm1.351-4.278a.788.788 0 1 0 0 1.576.788.788 0 0 0 0-1.576zm-7.43 0a.788.788 0 1 0 0 1.576.788.788 0 0 0 0-1.576z"/>
        <circle cx="23" cy="23" r="15" stroke="url(#b)" stroke-width="4"/>
    </g>
</svg>
