<svg xmlns="http://www.w3.org/2000/svg" width="46" height="46"><defs><linearGradient id="a" x1="-28.311%" x2="50%" y1="16.718%" y2="100%"><stop offset="0%" stop-color="#FAD961"/><stop offset="100%" stop-color="#F76B1C"/></linearGradient><linearGradient id="b" x1="0%" x2="98.119%" y1="0%" y2="97.157%"><stop offset="0%" stop-color="#5D5D5D"/><stop offset="100%"/></linearGradient></defs><g fill="none" fill-rule="evenodd"><path d="M0 0h46v46H0z"/><path fill="url(#a)" d="M16 24v-2h-2v2h-2v2h2v2h2v-2h2v-2h-2zm-8-6h30v16H8V18zm20 6v2h6v-2h-6z"/><path fill="url(#b)" d="M7 17v-3h3v-1h4v1h2l1-3h12l1 3h2v-1h4v1h3v3zm0 18h32v3H7z"/></g></svg>