<svg xmlns="http://www.w3.org/2000/svg" width="46" height="46"><defs><linearGradient id="a" x1="50%" x2="50%" y1="0%" y2="100%"><stop offset="0%" stop-color="#FAD961"/><stop offset="100%" stop-color="#F76B1C"/></linearGradient><linearGradient id="b" x1="50%" x2="50%" y1="0%" y2="100%"><stop offset="0%" stop-color="#F5515F"/><stop offset="100%" stop-color="#9F041B"/></linearGradient></defs><g fill="none" fill-rule="evenodd"><path d="M0 0h46v46H0z"/><path fill="url(#a)" fill-rule="nonzero" d="M6.655 25.455l3.91 8.384a4.234 4.234 0 002.396 2.194 4.233 4.233 0 003.247-.141L39.23 25.158l1.06 3.467a2.75 2.75 0 01-1.823 3.429l-24.62 7.526a2.735 2.735 0 01-2.092-.202 2.735 2.735 0 01-1.337-1.62L6.655 25.454z"/><path fill="url(#b)" fill-rule="nonzero" d="M40.235 20.004a2.75 2.75 0 01-1.328 3.65L15.573 34.532a2.735 2.735 0 01-2.1.09 2.735 2.735 0 01-1.549-1.418l-6.16-13.208a2.748 2.748 0 011.33-3.649l23.332-10.88a2.73 2.73 0 012.1-.092c.69.251 1.24.755 1.55 1.42l6.16 13.208z"/><path fill="#FFF" fill-rule="nonzero" d="M19.29 18.92a1.15 1.15 0 10-.973-2.084 1.15 1.15 0 00.972 2.085zm.718 1.541a2.85 2.85 0 11-2.41-5.166 2.85 2.85 0 012.41 5.166zm8.279.719a1.2 1.2 0 10-2.175 1.014 1.2 1.2 0 002.175-1.014zm-3.625 1.69a2.8 2.8 0 115.075-2.367 2.8 2.8 0 01-5.075 2.367zm-.508-9.77l1.626.498-3.93 12.866-1.627-.496 3.93-12.867zm1.626.498l-3.93 12.866-1.627-.496 3.93-12.867 1.627.497z"/></g></svg>