<svg height="448pt" viewBox="0 0 448 448" width="448pt" xmlns="http://www.w3.org/2000/svg"><path fill="#333" d="M320 288c0 8.836-7.164 16-16 16s-16-7.164-16-16 7.164-16 16-16 16 7.164 16 16zM110.879 176H128v16h-18.266l-1.14 16H136v16h-28.55l-1.145 16H120v16h-14.832l-.574 8h26.46c11.926-10.668 29.966-10.668 41.891 0H232v-96H111.45zM184 184h24v16h-24zm-24 40h16v16h-16zm0 0"/><path fill="#333" d="M224 0C100.29 0 0 100.29 0 224s100.29 224 224 224 224-100.29 224-224C447.86 100.348 347.652.14 224 0zm24 272a8 8 0 01-8 8h-57.137a31.472 31.472 0 011.137 8c0 17.672-14.328 32-32 32s-32-14.328-32-32a31.472 31.472 0 011.137-8H96a8.005 8.005 0 01-5.867-2.54A8.003 8.003 0 0188 271.435L89.121 256H72v-16h18.266l1.14-16H48v-16h44.55l1.145-16H72v-16h22.832L96 159.434a7.998 7.998 0 018-7.434h136a8 8 0 018 8zm112 0a8 8 0 01-8 8h-17.137a31.472 31.472 0 011.137 8c0 17.672-14.328 32-32 32s-32-14.328-32-32a31.472 31.472 0 011.137-8H264a8 8 0 01-8-8v-96a8 8 0 018-8h56c3.672 0 6.871 2.5 7.762 6.063L334.246 200H352a8 8 0 018 8zm0 0"/><path fill="#333" d="M320.238 209.938L313.754 184H272v80h11.055c11.925-10.668 29.965-10.668 41.89 0H344v-48h-16a8.001 8.001 0 01-7.762-6.063zM168 288c0 8.836-7.164 16-16 16s-16-7.164-16-16 7.164-16 16-16 16 7.164 16 16zm0 0"/></svg>