<svg height="448pt" viewBox="0 0 448 448" width="448pt" xmlns="http://www.w3.org/2000/svg"><path fill="#333" d="M260.48 146.68a7.994 7.994 0 01-3.886-7.887L261 103.48a24.617 24.617 0 01-21-5.601c-9.102 8.172-22.898 8.172-32 0a24.617 24.617 0 01-21 5.601l4.406 35.313a7.994 7.994 0 01-3.886 7.887C142.344 173.207 112 241.168 112 288c0 54.105 37.719 64 112 64s112-9.895 112-64c0-46.832-30.344-114.793-75.52-141.32zM200 136h48v16h-48zm-32 200h-16v-16h16zm40-88h32c13.254 0 24 10.746 24 24v8c0 13.254-10.746 24-24 24h-8v8h-16v-8h-8c-13.254 0-24-10.746-24-24h16a8 8 0 008 8h32a8 8 0 008-8v-8a8 8 0 00-8-8h-32c-13.254 0-24-10.746-24-24v-8c0-13.254 10.746-24 24-24h8v-8h16v8h8c13.254 0 24 10.746 24 24h-16a8 8 0 00-8-8h-32a8 8 0 00-8 8v8a8 8 0 008 8zm80 72h16v16h-16zm0 0"/><path fill="#333" d="M224 0C100.29 0 0 100.29 0 224s100.29 224 224 224 224-100.29 224-224C447.86 100.348 347.652.14 224 0zm0 368c-54.016 0-128 0-128-80 0-49.52 30.031-120.504 78.895-152.32l-6.399-51.07v-.25A23.367 23.367 0 01168 80a8.003 8.003 0 017.504-7.969 8.004 8.004 0 018.434 6.977l.367 2.93A8 8 0 00200 80a8 8 0 0116 0 8 8 0 0016 0 8 8 0 0116 0 8 8 0 0015.695 1.938l.368-2.93A8.091 8.091 0 01272.495 72 8.001 8.001 0 01280 80a23.708 23.708 0 01-.535 4.36v.25l-6.403 51.07C321.97 167.496 352 238.48 352 288c0 80-73.984 80-128 80zm0 0"/></svg>