<svg xmlns="http://www.w3.org/2000/svg" width="20" height="20" viewBox="0 0 20 20">
    <g fill="none" fill-rule="evenodd">
        <path fill="#F56605" d="M9.391 18.336l-2.112.995a1.429 1.429 0 0 1-1.953-.809l-.79-2.197c-.144-.4-.46-.717-.86-.86l-2.198-.791a1.429 1.429 0 0 1-.809-1.953l.995-2.112a1.429 1.429 0 0 0 0-1.218L.669 7.28a1.429 1.429 0 0 1 .809-1.953l2.197-.79c.4-.144.717-.46.86-.86l.791-2.198A1.429 1.429 0 0 1 7.28.669l2.112.995c.386.181.832.181 1.218 0L12.72.669a1.429 1.429 0 0 1 1.953.809l.79 2.197c.144.4.46.717.86.86l2.198.791a1.429 1.429 0 0 1 .809 1.953l-.995 2.112a1.429 1.429 0 0 0 0 1.218l.995 2.112a1.429 1.429 0 0 1-.809 1.953l-2.197.79c-.4.144-.717.46-.86.86l-.791 2.198a1.429 1.429 0 0 1-1.953.809l-2.112-.995a1.429 1.429 0 0 0-1.218 0z"/>
        <path fill="#FFF" d="M5.187 7.531c0-.77.168-1.34.506-1.71.338-.372.796-.557 1.374-.557.598 0 1.066.184 1.404.553.338.37.507.94.507 1.714 0 .77-.17 1.34-.507 1.711-.338.371-.796.557-1.374.557-.598 0-1.066-.185-1.404-.554-.338-.369-.506-.94-.506-1.714zM6.47 7.52c0 .558.064.933.193 1.125.098.14.233.21.404.21.176 0 .313-.07.41-.21.126-.192.188-.567.188-1.125 0-.56-.062-.932-.187-1.12a.467.467 0 0 0-.41-.216.466.466 0 0 0-.405.21c-.129.192-.193.567-.193 1.126zm1.851 6.808H7.103l4.576-9.064h1.183l-4.54 9.064zm2.66-2.256c0-.77.17-1.34.507-1.71.338-.372.8-.557 1.386-.557.59 0 1.054.185 1.392.556.338.371.506.942.506 1.711 0 .774-.168 1.346-.506 1.717-.338.371-.796.557-1.374.557-.598 0-1.066-.186-1.404-.557-.338-.371-.507-.943-.507-1.717zm1.284-.006c0 .559.064.932.193 1.12a.462.462 0 0 0 .404.216c.176 0 .31-.07.405-.21.129-.192.193-.567.193-1.126 0-.558-.063-.933-.188-1.125a.471.471 0 0 0-.41-.21c-.175 0-.31.07-.404.21-.129.192-.193.567-.193 1.125z"/>
    </g>
</svg>
