<svg xmlns="http://www.w3.org/2000/svg" width="46" height="46" viewBox="0 0 46 46">
    <g fill="none" fill-rule="evenodd">
        <path d="M0 0h46v46H0z"/>
        <path fill="#000" fill-rule="nonzero" d="M6.655 25.455l3.91 8.384a4.234 4.234 0 0 0 2.396 2.194c1.05.383 2.214.341 3.247-.141L39.23 25.158l1.06 3.467a2.75 2.75 0 0 1-1.823 3.429l-24.62 7.526a2.735 2.735 0 0 1-2.092-.202 2.735 2.735 0 0 1-1.337-1.62L6.655 25.454z"/>
        <path fill="#000" fill-rule="nonzero" d="M40.235 20.004a2.75 2.75 0 0 1-1.328 3.65L15.573 34.532a2.735 2.735 0 0 1-2.1.09 2.735 2.735 0 0 1-1.549-1.418l-6.16-13.208a2.748 2.748 0 0 1 1.33-3.649l23.332-10.88a2.73 2.73 0 0 1 2.1-.092c.69.251 1.24.755 1.55 1.42l6.16 13.208z"/>
        <path fill="#FFF" fill-rule="nonzero" d="M19.29 18.92a1.15 1.15 0 1 0-.973-2.084 1.15 1.15 0 0 0 .972 2.085zm.718 1.541a2.85 2.85 0 1 1-2.41-5.166 2.85 2.85 0 0 1 2.41 5.166zM28.287 21.18a1.2 1.2 0 1 0-2.175 1.014 1.2 1.2 0 0 0 2.175-1.014zm-3.625 1.69a2.8 2.8 0 1 1 5.075-2.367 2.8 2.8 0 0 1-5.075 2.367zM24.154 13.1l1.626.498-3.93 12.866-1.627-.496 3.93-12.867zm1.626.498l-3.93 12.866-1.627-.496 3.93-12.867 1.627.497z"/>
    </g>
</svg>
