<svg xmlns="http://www.w3.org/2000/svg" width="46" height="46" viewBox="0 0 46 46">
    <defs>
        <linearGradient id="a" x1="0%" y1="0%" y2="100%">
            <stop offset="0%" stop-color="#FFF"/>
            <stop offset="100%" stop-color="#2D2D2D"/>
        </linearGradient>
        <linearGradient id="b" x1="0%" y1="0%" y2="100%">
            <stop offset="0%" stop-color="#818181"/>
            <stop offset="100%"/>
        </linearGradient>
    </defs>
    <g fill="none" fill-rule="evenodd">
        <path d="M0 0h46v46H0z"/>
        <path fill="url(#a)" d="M23 34c-6.075 0-11-4.925-11-11s4.925-11 11-11 11 4.925 11 11-4.925 11-11 11zm0-16.328a1.672 1.672 0 1 0 0-3.344 1.672 1.672 0 0 0 0 3.344zm0 14a1.672 1.672 0 1 0 0-3.344 1.672 1.672 0 0 0 0 3.344zM28.328 23a1.672 1.672 0 1 0 3.344 0 1.672 1.672 0 0 0-3.344 0zm-14 0a1.672 1.672 0 1 0 3.344 0 1.672 1.672 0 0 0-3.344 0zm12.44-3.768a1.672 1.672 0 1 0 2.364-2.364 1.672 1.672 0 0 0-2.364 2.364zm-9.9 9.9a1.672 1.672 0 1 0 2.364-2.364 1.672 1.672 0 0 0-2.364 2.364zm9.9-2.364a1.672 1.672 0 1 0 2.364 2.364 1.672 1.672 0 0 0-2.364-2.364zm-9.9-9.9a1.672 1.672 0 1 0 2.364 2.364 1.672 1.672 0 0 0-2.364-2.364zM23 26a3 3 0 1 0 0-6 3 3 0 0 0 0 6z"/>
        <path fill="url(#b)" fill-rule="nonzero" d="M23 10.5c-6.889 0-12.5 5.611-12.5 12.5S16.111 35.5 23 35.5 35.5 29.889 35.5 23 29.889 10.5 23 10.5zM23 6c9.374 0 17 7.626 17 17 0 9.374-7.626 17-17 17-9.374 0-17-7.626-17-17 0-9.374 7.626-17 17-17z"/>
    </g>
</svg>
