<svg height="448pt" viewBox="0 0 448 448" width="448pt" xmlns="http://www.w3.org/2000/svg"><path fill="#333" d="m320 288c0 8.835938-7.164062 16-16 16s-16-7.164062-16-16 7.164062-16 16-16 16 7.164062 16 16zm0 0"/><path fill="#333" d="m110.878906 176h17.121094v16h-18.265625l-1.140625 16h27.40625v16h-28.550781l-1.144531 16h13.695312v16h-14.832031l-.574219 8h26.460938c11.925781-10.667969 29.964843-10.667969 41.890624 0h59.054688v-96h-120.550781zm73.121094 8h24v16h-24zm-24 40h16v16h-16zm0 0"/><path fill="#333" d="m224 0c-123.710938 0-224 100.289062-224 224s100.289062 224 224 224 224-100.289062 224-224c-.140625-123.652344-100.347656-223.859375-224-224zm24 272c0 4.417969-3.582031 8-8 8h-57.136719c.722657 2.605469 1.101563 5.296875 1.136719 8 0 17.671875-14.328125 32-32 32s-32-14.328125-32-32c.035156-2.703125.414062-5.394531 1.136719-8h-25.136719c-2.222656.003906-4.351562-.914062-5.867188-2.539062-1.519531-1.625-2.289062-3.8125-2.132812-6.027344l1.121094-15.433594h-17.121094v-16h18.265625l1.140625-16h-43.40625v-16h44.550781l1.144531-16h-21.695312v-16h22.832031l1.167969-16.566406c.296875-4.195313 3.792969-7.445313 8-7.433594h136c4.417969 0 8 3.582031 8 8zm112 0c0 4.417969-3.582031 8-8 8h-17.136719c.722657 2.605469 1.101563 5.296875 1.136719 8 0 17.671875-14.328125 32-32 32s-32-14.328125-32-32c.035156-2.703125.414062-5.394531 1.136719-8h-9.136719c-4.417969 0-8-3.582031-8-8v-96c0-4.417969 3.582031-8 8-8h56c3.671875 0 6.871094 2.5 7.761719 6.0625l6.484375 25.9375h17.753906c4.417969 0 8 3.582031 8 8zm0 0"/><path fill="#333" d="m320.238281 209.9375-6.484375-25.9375h-41.753906v80h11.054688c11.925781-10.667969 29.964843-10.667969 41.890624 0h19.054688v-48h-16c-3.671875 0-6.871094-2.5-7.761719-6.0625zm0 0"/><path fill="#333" d="m168 288c0 8.835938-7.164062 16-16 16s-16-7.164062-16-16 7.164062-16 16-16 16 7.164062 16 16zm0 0"/></svg>
