<svg height="448pt" viewBox="0 0 448 448" width="448pt" xmlns="http://www.w3.org/2000/svg"><path fill="#d74516" d="m260.480469 146.679688c-2.753907-1.617188-4.285157-4.71875-3.886719-7.886719l4.40625-35.3125c-7.488281 1.492187-15.246094-.578125-21-5.601563-9.101562 8.171875-22.898438 8.171875-32 0-5.753906 5.023438-13.511719 7.09375-21 5.601563l4.40625 35.3125c.398438 3.167969-1.132812 6.269531-3.886719 7.886719-45.175781 26.527343-75.519531 94.488281-75.519531 141.320312 0 54.105469 37.71875 64 112 64s112-9.894531 112-64c0-46.832031-30.34375-114.792969-75.519531-141.320312zm-60.480469-10.679688h48v16h-48zm-32 200h-16v-16h16zm40-88h32c13.253906 0 24 10.746094 24 24v8c0 13.253906-10.746094 24-24 24h-8v8h-16v-8h-8c-13.253906 0-24-10.746094-24-24h16c0 4.417969 3.582031 8 8 8h32c4.417969 0 8-3.582031 8-8v-8c0-4.417969-3.582031-8-8-8h-32c-13.253906 0-24-10.746094-24-24v-8c0-13.253906 10.746094-24 24-24h8v-8h16v8h8c13.253906 0 24 10.746094 24 24h-16c0-4.417969-3.582031-8-8-8h-32c-4.417969 0-8 3.582031-8 8v8c0 4.417969 3.582031 8 8 8zm80 72h16v16h-16zm0 0"/><path fill="#d74516" d="m224 0c-123.710938 0-224 100.289062-224 224s100.289062 224 224 224 224-100.289062 224-224c-.140625-123.652344-100.347656-223.859375-224-224zm0 368c-54.015625 0-128 0-128-80 0-49.519531 30.03125-120.503906 78.894531-152.320312l-6.398437-51.070313c0-.089844 0-.160156 0-.25-.300782-1.433594-.46875-2.894531-.496094-4.359375.007812-4.21875 3.292969-7.703125 7.503906-7.96875 4.210938-.261719 7.898438 2.792969 8.433594 6.976562l.367188 2.929688c1.070312 3.800781 4.757812 6.25 8.679687 5.765625 3.917969-.484375 6.898437-3.753906 7.015625-7.703125 0-4.417969 3.582031-8 8-8s8 3.582031 8 8 3.582031 8 8 8 8-3.582031 8-8 3.582031-8 8-8 8 3.582031 8 8c.117188 3.949219 3.097656 7.21875 7.015625 7.703125 3.921875.484375 7.609375-1.964844 8.679687-5.765625l.367188-2.929688c.558594-4.175781 4.226562-7.222656 8.433594-7.007812 4.222656.261719 7.511718 3.769531 7.503906 8-.042969 1.46875-.222656 2.925781-.535156 4.359375v.25l-6.402344 51.070313c48.90625 31.816406 78.9375 102.800781 78.9375 152.320312 0 80-73.984375 80-128 80zm0 0"/></svg>
