<svg xmlns="http://www.w3.org/2000/svg" width="512pt" height="512pt" viewBox="-64 0 512 512.112">
  <path fill="#d8d8d8" d="M192.055 155.54c2.476 0 4.945.25 7.37.75l1.774-1.024v-54.118a89.953 89.953 0 00-18.285 0v54.118l1.766 1.023c2.425-.5 4.898-.75 7.375-.75zm0 0M108.781 154.57l46.703 26.98 2.086-1.195a36.326 36.326 0 017.059-12.18v-2.359l-46.684-27.027a91.364 91.364 0 00-9.164 15.781zm0 0M164.629 144.68v-39.782a91.28 91.28 0 00-34.277 19.95zm0 0"/>
  <path fill="#d8d8d8" d="M384.055 192.113C384.098 107.98 329.363 33.617 249.02 8.66 168.672-16.3 81.437 13.953 33.8 83.3c-47.64 69.345-44.581 161.63 7.544 227.669h65.832C55.367 274.043 33.37 207.867 52.754 147.273c19.387-60.593 75.71-101.71 139.328-101.71 63.621 0 119.945 41.117 139.332 101.71 19.383 60.594-2.617 126.77-54.422 163.696h65.828a192.171 192.171 0 0041.235-118.856zM116.508 52.391a170.833 170.833 0 00-54.281 44.636c-3.028 4.04-8.758 4.856-12.801 1.828-4.04-3.03-4.856-8.761-1.828-12.8a188.9 188.9 0 0160.172-49.72 9.128 9.128 0 019.218.145 9.138 9.138 0 01-.488 15.918zm29.836-15.707a9.144 9.144 0 01-9.145-9.145c0-5.047 4.094-9.14 9.145-9.14 5.047 0 9.14 4.093 9.14 9.14 0 5.05-4.093 9.145-9.14 9.145zm0 0"/>
  <path fill="#d8d8d8" d="M192.055 228.684a36.216 36.216 0 01-7.368-.75l-1.773 1.023v54.117a89.953 89.953 0 0018.285 0v-54.117l-1.765-1.023c-2.426.5-4.899.75-7.38.75zm0 0M155.484 202.672l-46.73 26.98a91.372 91.372 0 009.144 15.782l46.73-27.028v-2.36a36.342 36.342 0 01-7.03-12.175zm0 0M210.344 192.113c0 10.098-8.188 18.285-18.29 18.285-10.097 0-18.284-8.187-18.284-18.285 0-10.101 8.187-18.285 18.285-18.285 10.101 0 18.289 8.184 18.289 18.285zm0 0M102.86 172.262a89.363 89.363 0 000 39.699l34.34-19.848zm0 0M164.629 279.324v-39.777l-34.277 19.828a91.28 91.28 0 0034.277 19.95zm0 0M265.2 484.684H1.354c4.157 16.097 18.649 27.367 35.274 27.43h310.855c16.625-.063 31.118-11.333 35.274-27.43H301.77c-5.047 0-9.141-4.094-9.141-9.145 0-5.047 4.094-9.14 9.14-9.14h82.286v-18.286h-384v18.285h265.144c5.051 0 9.145 4.094 9.145 9.141a9.144 9.144 0 01-9.145 9.145zm0 0M.055 411.54h384v18.288h-384zm0 0"/>
  <path fill="#d8d8d8" d="M192.055 64.113C130.66 64.09 77.902 107.68 66.344 167.98c-11.555 60.297 21.344 120.31 78.398 142.989h94.63c57.054-22.68 89.952-82.692 78.398-142.989-11.56-60.3-64.317-103.89-125.715-103.867zm102.73 166.215v.055a109.783 109.783 0 01-18.734 32.219c-.45.644-.98 1.23-1.582 1.738a109.544 109.544 0 01-64 35.824h-.09a102.357 102.357 0 01-36.57 0h-.094a109.555 109.555 0 01-64-35.824 9.295 9.295 0 01-1.582-1.738 109.783 109.783 0 01-18.735-32.22v-.054c-.136-.238-.136-.5-.253-.75a107.674 107.674 0 010-74.969c.117-.25.117-.511.253-.75a109.894 109.894 0 0184.317-69.789h.094a102.357 102.357 0 0136.57 0h.09c38.515 6.618 70.62 33.188 84.316 69.79.137.238.137.5.258.75a107.674 107.674 0 010 74.968c-.121.25-.121.512-.258.75zm0 0"/>
  <path fill="#d8d8d8" d="M219.484 104.898v39.782l34.278-19.832a91.31 91.31 0 00-34.278-19.95zm0 0M246.914 192.113l34.375 19.848a89.363 89.363 0 000-39.7zm0 0M73.2 374.969H.054v18.285h384v-18.285H109.77c-5.047 0-9.141-4.094-9.141-9.14 0-5.052 4.094-9.145 9.14-9.145h272.989c-4.156-16.098-18.649-27.368-35.274-27.43H36.63c-16.625.062-31.117 11.332-35.274 27.43H73.2a9.144 9.144 0 019.145 9.144c0 5.047-4.094 9.14-9.145 9.14zm0 0M219.484 279.324a91.31 91.31 0 0034.278-19.949l-34.278-19.828zm0 0M226.516 203.871a36.408 36.408 0 01-7.032 12.176v2.36l46.684 27.027a91.372 91.372 0 009.144-15.782l-46.683-26.98zm0 0M228.629 181.55l46.726-26.98a91.246 91.246 0 00-9.14-15.78l-46.73 27.026v2.36c3.113 3.562 5.5 7.699 7.03 12.18zm0 0"/>
</svg>
